<mxfile host="app.diagrams.net" modified="2022-10-19T08:17:05.573Z" agent="5.0 (Macintosh; Intel Mac OS X 10_15_7) AppleWebKit/537.36 (KHTML, like Gecko) Chrome/106.0.0.0 Safari/537.36" etag="1OANkzfW5KaUYgqiOOs1" version="19.0.3" type="github">
  <diagram id="stnzDDtHNmjzy7GHCDT0" name="Page-1">
    <mxGraphModel dx="1801" dy="908" grid="1" gridSize="10" guides="1" tooltips="1" connect="1" arrows="1" fold="1" page="1" pageScale="1" pageWidth="827" pageHeight="1169" math="0" shadow="0">
      <root>
        <mxCell id="0" />
        <mxCell id="1" parent="0" />
        <mxCell id="KRmHvhTOdGDJ5uWnzA2R-1" value="" style="ellipse;shape=cloud;whiteSpace=wrap;html=1;" vertex="1" parent="1">
          <mxGeometry x="80" y="160" width="120" height="80" as="geometry" />
        </mxCell>
        <mxCell id="KRmHvhTOdGDJ5uWnzA2R-3" value="" style="shape=mxgraph.cisco.routers.router;html=1;pointerEvents=1;dashed=0;fillColor=#036897;strokeColor=#ffffff;strokeWidth=2;verticalLabelPosition=bottom;verticalAlign=top;align=center;outlineConnect=0;" vertex="1" parent="1">
          <mxGeometry x="210" y="300" width="78" height="53" as="geometry" />
        </mxCell>
        <mxCell id="KRmHvhTOdGDJ5uWnzA2R-4" value="" style="rounded=1;whiteSpace=wrap;html=1;arcSize=5;strokeWidth=1;dashed=1;dashPattern=1 1;" vertex="1" parent="1">
          <mxGeometry x="150" y="470" width="390" height="310" as="geometry" />
        </mxCell>
        <mxCell id="KRmHvhTOdGDJ5uWnzA2R-7" value="" style="endArrow=none;html=1;rounded=0;entryX=0.892;entryY=0.788;entryDx=0;entryDy=0;entryPerimeter=0;exitX=0.5;exitY=0;exitDx=0;exitDy=0;exitPerimeter=0;" edge="1" parent="1" source="KRmHvhTOdGDJ5uWnzA2R-3" target="KRmHvhTOdGDJ5uWnzA2R-1">
          <mxGeometry width="50" height="50" relative="1" as="geometry">
            <mxPoint x="390" y="520" as="sourcePoint" />
            <mxPoint x="440" y="480" as="targetPoint" />
          </mxGeometry>
        </mxCell>
        <mxCell id="KRmHvhTOdGDJ5uWnzA2R-9" value="" style="rounded=1;whiteSpace=wrap;html=1;arcSize=5;strokeWidth=2;dashed=1;" vertex="1" parent="1">
          <mxGeometry x="620" y="240" width="620" height="540" as="geometry" />
        </mxCell>
        <mxCell id="KRmHvhTOdGDJ5uWnzA2R-11" value="" style="shape=image;verticalLabelPosition=bottom;labelBackgroundColor=default;verticalAlign=top;aspect=fixed;imageAspect=0;image=data:image/png,iVBORw0KGgoAAAANSUhEUgAAAMgAAADICAYAAACtWK6eAAAAAXNSR0IArs4c6QAAEzpJREFUeF7tnQt0FFWax/8k4THDY4NEbQSWySGGh6vgBBYDYTUDgQQIiY4CRpRweB0YYVeyg4ygHgTGB8EXLA4ED6wDMrAHkvBaAhoRQpAhaJBRSIBBlkcIkAABfEAee26TjKS7qrq6urq6qvp/z+mDpu93v+/+7/frr6u6qm4TsFEBKiCrQBNqQwWogLwCBITZQQUUFCAgTA8qQECYA1RAmwKsINp0o1WQKEBAgmShOU1tChAQbbrRKkgUICBBstCcpjYFCIg23WgVJAp4C0hTAP0BdL3j9csg0YrTtK4C3wL4BoD4twBAtdqpqAHkLgDTAQyofwlI2KiAVRW4CWAngCIA7wOoVJqIJ0Cm1cMRZVU1GDcVUFDgeD0ki+X6yAESAeBDACMoLxUIAgV2ARgL4P9c5yoFSEx9+QkCXThFKtBIAXEYIY5R/tFcAWkD4CpFowJBrIA46fRDw/xdAdkBIMGTOE2aNLkcERFxplevXpfDw8PrPPXn+1QgkAoUFhY2Lysr+1Vtba1DRRwrAEyUAuR5ALIHK8Jg0KBBO+bPnx/Zt2/f+1U4YhcqYCoFioqKSjMyMi7v3r27r4fAxMmpJaJPQwXpBGAvAPGvWxMVY+vWrUVJSUkeq4upFGEwVEBCgaysrBOTJ0921NXVtZQR6HT9732nGwARlUNUELcWGhp6qbq6WpzVYqMCtlIgLCzsZE1NTaTMpEQFmSYAaQ3gFIC2Uh337NlzLi4u7j5bKcPJUAEAR48ePdS9e/eeMmKIk1WdBSCPA9go1Sk1NbUoOzu7N9WkAnZVYMyYMVvWrFkzXGZ+zwlA/gJglGuHkJCQCzU1NffYVRjOiwo0KCAOI2pra6UOIzYIQL4E8LCrXA6H40BZWVkfykgF7K6Aw+E4VF5eLvVV6ysBiPh53e3s1eDBg3fm5eXxrJXds4Pzw8CBAwvz8/P7SUjhPIt1A4DbJeuZmZkFGRkZcdSPCthdgYULF+6bOXNmrMQ8vxeASP4SnpOTU5ySktLL7uJwflQgNze3ODU1VTLXCQjzI+gVICBBnwIUQEkBQwD56aefiq9cucKvZMzFgCsQHh5e3Lx5c9W5SEACvmQMwEgFCIiRatOX5RQgIJZbMgZspAIExEi16ctyChAQyy0ZAzZSAQJipNr0ZTkFCIjllowBG6kAATFSbfqynAIExHJLxoCNVICAGKk2fVlOAQJiuSVjwEYqQECMVJu+LKcAAVGxZKWlpeKpFThz5gzOnj3rfInWoUMH56tjx47o1q0boqOjVYzGLlZSgIDIrNbevXtRUFCAbdu2oaSkRNWadu3aFUOHDkVcXBz69xd7A7FZXQEC4rKCmzdvxrJly1BUJPZE0d4efvhhjBs3DiNHjtQ+CC0DrgABqV8CAYQAQwCiZxswYIATFFFZ2KynAAEB8M477+DNN9/06+qNHTvW7z78OoEgHTzoAUlLS0N+fr4hy9+nTx/dK5QhgQexk6AGRJx1qqqqUr387dq1Q7foSHS7v4PzUfZHjp3F0dK/o6JCce/GRuO3bNkSJ06cUO2THQOrQNACMnr0aOzaJbaTU26/TRmEx2KjMOiRe9GlvXTfE+dq8Mn+SuzadwwbcsWmp8rtwQcfxM6dnvt5Gofv+1+BoARk6dKleO211xTVjR8QgxnjYzEktp1Xq7Cn+Br+a/VX2Lj5M0W7iRMnYt68eV6Nzc7GKxB0gGzcuBFTp05VVPqVjCcxZ9IDPq3Guh3n8ey0ZYpjvPDCC3jxxRd98iNl3KNHj+LKykrVT+LQPYAAD5icnPx5VlbWo3qEEVSAXLt2DcOHD1f84W/D8slIflTN9nOe5d9/qAwDRi5X7Lhjxw489NBDngfzogcBISBepMvPXTMzMyFecq286BW0bS233bsml/j+h1sI7/VHWeNnn30WCxcu1Da4jBUBISBeJ5S4nmrYsGEQVUSq/eVP0/FEvOTGWF77cjU4cOQH9E99S3YcvasIASEgXift7Nmz8eGHH0raTUpPxZI/yO2e5bUrSYM/bTiH6S9lSb43fvx4LFiwQB9HAAgIAfE6mWJjY3Hy5Ek3uw73tceutePQ2dHU6zG9Nejz1P/g0NffuplFRkZi37593g4n25+AEBCvkmn//v1ISUmRtMmcOx7TR3f0ajytnZWqSG5uLvr29bTltjrP27dvL1bX0769EhMTdTmLFxRnscTXl8WLxe7U7u1U4Ry0bxdqSKZc+74WUfGLcfnKFTd/06ZNg/gayGYuBYICEHFwfvDgQTfl+8Q8hL0fi415jWtjZhVgffanbg5jYmKwdetW4wKhJ1UKBAUgvXr1wvnz590EmfUfT+O1KcbeBZh/8DoS0xa5xeJwOFBcHPTfjFQlrZGdbA9IdXW185ZYqfbnJc9jVIJ3l5L4ujh/O3kTv058XXIYcUtvWFiYry5or6MCtgfk1KlTsge/X27/A/4lspmOcnoe6sLlGnR8ZL5kR3EyoXPnzp4HYQ/DFLA9IIWFhXjiiSckBb1Z8qphQt/pqFnXuZJ+xXVi/fpJ7SAckDDpFIDtASkvL0fPntI/ApqtgogHRXTp0oWJaSIFbA+I0DoqKgrXr193k91sxyDHjx9Hq1atTJQeDCUoABk8eDC+/vprU5/FEmAIQNjMpUBQADJlyhRkZ2e7Kd8/tjc+WzXM0BWZuqAYKz7KdfMpvlqJr1hs5lIgKABRusz9zBev4J62+l7iLrfEN36sQ9Rvlkjewy4OzsVBOpu5FAgKQI4dOwbxfCqp9va8iXh+5H2GrEpW9nn8bpb0XYYrV65EUlKSIXHQiXoFggIQIUdiYqLkL9XR90dhz7rn0LZljXrVNPb8t+c244v9X7pZd+rUCQcOHNA4Ks38qUDQAPLee+/h9delf8Ge8/txeGXCP/tTZ2zYdQNPT5a+m3HmzJmYMWOGX/1zcG0KBA0ghw4dwpAhQ2RV+vOS32FUQoQ2FT1YHT5Zg7R/X4+SklLJnrt379b1yfC83N35jYGXu3ubzeIpImvXrpU1KzvwMtq1CfF2WMX+R45fxKgZO3G05Jhkv+nTp+Oll17S1SdvmOINU5oSqqysDE8++aTikw1LPp+LSEetpvFdjb49XonRM7bhaIn0kxTFA+RycnIgnraoZyMgBERzPm3atAmTJk1StM9Z9XsMjf2lZh/C8PB3IUibvholMpVD9MnKykJycrJPfqSMCQgB8Smp5syZgxUrViiOkZ42HBNH9kCf7r/wypc43vgo9zjWbsjHhQsXZG3Fo0/fffddr8ZW25mAEBC1uSLZr6amxrlnh3jcjqf21OMJGPpYFJ5Jag/UyZ8KXr39Ev53VylytuzCrVu3FIcVVUNUD381AkJAfM6tq1evOiERl8OraeHh4ej96wdwT7s2iLirpfPp7hcrb+BiRRWKvvxG8j5zqXH9DYfwSUAIiJqc9thHbMaZnp6Ow4cPe+yrRwcj4NAjTo7xswJB8zuI3KIr3VCld6Lwhii9FfX/eARE4Y5DveUnIHor6v/xCAgB8X+WWdgDAVEA5Om7I/H51XKcu/m9qiVuG9YMCeH3Yf2l7yT7s4KoktFUnQiIAiBVj6Q5F2tPVTkKqi6gsvonXK6+6XzVoQ7hYc3QNrSZ899/bX034v/JgWZNQtDmi48JiKnSXHswBEQFIN7KS0C8Vcy8/QkIATFvdpogMgJCQEyQhuYNgYAQEPNmpwkiIyAaADnx4+1t3Lq0aC25hDwGMUFm6xQCAfESkPJbP+K3R2/vgb6hWzzubdrCbSkIiE7ZaYJhCIgXgPxQW43UI59h37WLzqWLbX03crrH4xchjZ/ITkBMkNk6hUBAvADk8aOf4dMrZY2kHxjeHtnd4hv9jYDolJ0mGIaAqARkTOkebKo8LblkI+7qhNXRPz93i4CYILN1CoGAqABk8ol9WHvRfYfcO9dAXJayrEus80+BBoRPNeFTTXT6fIDzhim5/UPEpSb/ebIIy8ulH9fjGsSke6ORGdk74IDwhineMGUIIBkdHsCis9945UvJxqiLFQkIAfEqaZU62/GGKQJCQAiIggIEhIAEFJClS5c6/U+dOtWrOPgVyyu5NHdOTiYgmsVzNfT2K9aiRYvwzDPPOIdZs2YNMjIyVMdCQFRL5VNHAuKTfI2NvQFk/vz5mDBhQqMBxAPoxIPo1DSjAFETC/uoU4C/g6i8J3327NmYNm2apKqLFy/GggULPCpOQDxKZLoOBEQFIGLvDrGHh1J766238Pbbbyv2ISCmy3+PAREQD4CIDUBfffVVj0KKDnPnzsUHH3wg25eAqJLRVJ0IiAIg4qmLb7zxhlcLNmvWLKxatUrShoB4JaUpOhMQGUBGjhyJ999/X9MiiU1x1q9f72ZLQDTJGVAjAiIBiB7P0J04cSI2b97caHEJSEBzXZNzAuICyKBBg7B69WpNYroajRkzBp988sk//kxAdJHV0EEIyB2AxMXFYd26dQgNDdVlEcQ+JKNGjUJBQYFzPAKii6yGDkJA6gGJiYlxwtGqVStdF+D69etOSA4ePEhAdFXWmMEISGEhXn75ZSccERH+2Qb60qVLTkjmzZuHfv36GbOy9KKLAgSksBCdOnVyvvzZTp8+DfEiIP5UWf+xgx6Q0tJSREdH66+sxIhG+jJkQkHgJOgBCYI15hR9UICA+CAeTe2vAAGx/xpzhj4oQEB8EI+m9leAgNh/jTlDHxQgID6IR1P7K0BA7L/GnKEPChAQH8Sjqf0VMC0gVVVV9lefMzS9Am3atEHz5s17qQ00Nze3ODU1VbJ/EwB1UgPl5OQUp6SkqHaiNhj2owJmU4CAmG1FGI+pFCAgploOBmM2BTwBch1AS9egMzMzCzIyMuLMNhnGQwX0VmDhwoX7Zs6ceXujmMbthjgGEbvM/Mr1ncGDB+/My8tL0DsYjkcFzKbAwIEDC/Pz86Vu+vlOAPJXAH1cg3Y4HAfKysrc/m62yTEeKuCrAg6H41B5eXlPiXEOCEDeAzDd9c2QkJALNTU19/jqnPZUwOwKhIaGXqqtrZW6NXWZAOQxALc3EXdpCQkJRTt27Oht9gkyPiqgVYHU1NTNubm5yTL2wwQgopUAkLxFb8WKFSfGjx/fRWsAtKMCZlVg+/btnyYlJQ2Uie/vALo0ADIbwHy5iZSVlZ1yOBydzTpRxkUFvFXg2LFjldHR0Xcp2In9MRY0ANIGwBcAussZpKenf7xy5co0bwNhfypgNgWGDRv27bZt23ooxHUEwCMAqhoAEX2nALi9T5lMi4iI+Gt6evrNhISEdvHx8fc3bdo0zGyTZzxUQEqBwsLCv23ZsqVi+fLld1dUVCjBIczFPn3OR/7fCYj4/2wAqSolrm7VqtXxFi1a/KiyP7tRgYAoUFFREVVXV6f26YLvAJjREKgrIOLvlwGEB2QmdEoFAqvAOQAd7gxBChDx/lcAeCVvYBeL3o1V4JTUFSVygIjQxGYZTxkbI71RgYAokAcgUcqzEiCi/3MAxgL4TUDCplMq4F8F8gH8N4CP5Nx4AqTBbiiAEfWv9v6NmaNTAb8qcLr+25HYBGa7J09qAblzHHFpSjsA4toV8WrqyYlF33+0/jKcRuGPGDFClGPLtk2bNg2RCH4XgM8tOynPgV8AcLH+JeaqumkBRPXgFu8ork8THwZugOTm5kolmemnm5KSkqcASLzpJxCAAAmIvOgEJAAJaTaXBISACAXE1w5WEIlcICAEhIAolC0CQkAICAHR9M2WxyCaZLOXESsIKwgrCCuIpk81VhBNstnLiBWEFYQVhBVE06caK4gm2exlxArCCsIKwgqi6VONFUSTbPYyYgVhBWEFYQXR9KnGCqJJNnsZsYKwgrCCsIJo+lRjBdEkm72MWEFYQVhBWEE0faqxgmiSzV5GrCCsIKwgrCCaPtVYQTTJZi8jVhBWEFYQVhBNn2qsIJpks5cRKwgrCCsIK4imTzVWEE2y2cuIFYQVhBWEFUTTpxoriCbZ7GXECsIKwgrCCqLpU40VRJNs9jKyYgWps9cSBN1sLJVzlgq2PpUIiLWZslTOWSpYAmJtMuqjt1TOWSpYAkJAjFaAgBitOP1ZKucsFSwriC3oslTOWSpYJUCmrvi4ICSsqdrN4m2RaWadRG31retLJ6TFycRnqZyzVLCeAIkZ/rjcopg1l2wZ18Et2QUEJHBLK3maV1QQAhK4RbnTMwEJ7DoQkMDq79E7AfEokV87EBC/yuv74ATEdw19GYGA+KKeAbYExACRFVwQkMDq79E7AfEokV87SALSM2FYnl+9GjR4SAic86utRZOG/5ZyreZ9YSc1hpKteE/OriEOT75Fv6/ytibyNK9BSePihhcrBkZ3vbxa6qcFSwVbv0IERK9UDcw4lso5SwVLQAKT0Tp7tVTOWSpYAqJzqgZmOEvlnKWCJSCByWidvVoq5ywVbP1CiXvF2ayrQLyVQrciIFbSl7FaXAECYvEFZPj+VYCA+Fdfjm5xBQiIxReQ4ftXAQLiX305usUVICAWX0CG718FCIh/9eXoFleAgFh8ARm+fxUgIP7Vl6NbXAECYvEFZPj+VeD/AffPFmROIC9uAAAAAElFTkSuQmCC;" vertex="1" parent="1">
          <mxGeometry x="200" y="660" width="80" height="80" as="geometry" />
        </mxCell>
      </root>
    </mxGraphModel>
  </diagram>
</mxfile>
